<svg xmlns="http://www.w3.org/2000/svg" xmlns:xlink="http://www.w3.org/1999/xlink" width="200" zoomAndPan="magnify" viewBox="0 0 150 30.000001" height="40" preserveAspectRatio="xMidYMid meet" version="1.2"><defs><clipPath id="294b82f206"><path d="M 115 9 L 133 9 L 133 29.03125 L 115 29.03125 Z M 115 9 "/></clipPath></defs><g id="f07387fb58"><g style="fill:#e8e8e8;fill-opacity:1;"><g transform="translate(2.419352, 23.815874)"><path style="stroke:none" d="M 1.65625 -22.765625 L 8.71875 -22.765625 C 10.851562 -22.765625 12.554688 -22.304688 13.828125 -21.390625 C 15.097656 -20.484375 15.734375 -19.007812 15.734375 -16.96875 C 15.734375 -14.6875 14.785156 -13.0625 12.890625 -12.09375 C 16.128906 -11.519531 17.75 -9.601562 17.75 -6.34375 C 17.75 -4.4375 17.082031 -2.898438 15.75 -1.734375 C 14.425781 -0.578125 12.609375 0 10.296875 0 L 1.65625 0 Z M 6.84375 -13.859375 L 7.25 -13.859375 C 8.414062 -13.859375 9.28125 -14.054688 9.84375 -14.453125 C 10.414062 -14.859375 10.703125 -15.523438 10.703125 -16.453125 C 10.703125 -17.992188 9.550781 -18.765625 7.25 -18.765625 L 6.84375 -18.765625 Z M 6.84375 -4 L 8.46875 -4 C 11.007812 -4 12.28125 -4.847656 12.28125 -6.546875 C 12.28125 -7.554688 11.960938 -8.28125 11.328125 -8.71875 C 10.691406 -9.15625 9.738281 -9.375 8.46875 -9.375 L 6.84375 -9.375 Z M 6.84375 -4 "/></g></g><g style="fill:#e8e8e8;fill-opacity:1;"><g transform="translate(19.406876, 23.815874)"><path style="stroke:none" d="M 3 -1.6875 C 1.425781 -3.082031 0.640625 -4.875 0.640625 -7.0625 C 0.640625 -9.25 1.457031 -11.046875 3.09375 -12.453125 C 4.726562 -13.859375 6.75 -14.5625 9.15625 -14.5625 C 11.53125 -14.5625 13.53125 -13.851562 15.15625 -12.4375 C 16.789062 -11.019531 17.609375 -9.226562 17.609375 -7.0625 C 17.609375 -4.894531 16.8125 -3.109375 15.21875 -1.703125 C 13.625 -0.296875 11.601562 0.40625 9.15625 0.40625 C 6.625 0.40625 4.570312 -0.289062 3 -1.6875 Z M 6.765625 -9.46875 C 6.140625 -8.84375 5.828125 -8.039062 5.828125 -7.0625 C 5.828125 -6.082031 6.128906 -5.285156 6.734375 -4.671875 C 7.335938 -4.054688 8.140625 -3.75 9.140625 -3.75 C 10.085938 -3.75 10.867188 -4.0625 11.484375 -4.6875 C 12.109375 -5.3125 12.421875 -6.101562 12.421875 -7.0625 C 12.421875 -8.039062 12.101562 -8.84375 11.46875 -9.46875 C 10.832031 -10.09375 10.054688 -10.40625 9.140625 -10.40625 C 8.191406 -10.40625 7.398438 -10.09375 6.765625 -9.46875 Z M 6.765625 -9.46875 "/></g></g><g style="fill:#e8e8e8;fill-opacity:1;"><g transform="translate(36.2565, 23.815874)"><path style="stroke:none" d="M 3 -1.6875 C 1.425781 -3.082031 0.640625 -4.875 0.640625 -7.0625 C 0.640625 -9.25 1.457031 -11.046875 3.09375 -12.453125 C 4.726562 -13.859375 6.75 -14.5625 9.15625 -14.5625 C 11.53125 -14.5625 13.53125 -13.851562 15.15625 -12.4375 C 16.789062 -11.019531 17.609375 -9.226562 17.609375 -7.0625 C 17.609375 -4.894531 16.8125 -3.109375 15.21875 -1.703125 C 13.625 -0.296875 11.601562 0.40625 9.15625 0.40625 C 6.625 0.40625 4.570312 -0.289062 3 -1.6875 Z M 6.765625 -9.46875 C 6.140625 -8.84375 5.828125 -8.039062 5.828125 -7.0625 C 5.828125 -6.082031 6.128906 -5.285156 6.734375 -4.671875 C 7.335938 -4.054688 8.140625 -3.75 9.140625 -3.75 C 10.085938 -3.75 10.867188 -4.0625 11.484375 -4.6875 C 12.109375 -5.3125 12.421875 -6.101562 12.421875 -7.0625 C 12.421875 -8.039062 12.101562 -8.84375 11.46875 -9.46875 C 10.832031 -10.09375 10.054688 -10.40625 9.140625 -10.40625 C 8.191406 -10.40625 7.398438 -10.09375 6.765625 -9.46875 Z M 6.765625 -9.46875 "/></g></g><g style="fill:#e8e8e8;fill-opacity:1;"><g transform="translate(53.106124, 23.815874)"><path style="stroke:none" d="M 2.484375 -14.15625 L 2.484375 -19.421875 L 7.375 -19.421875 L 7.375 -14.15625 L 10.34375 -14.15625 L 10.34375 -10.4375 L 7.375 -10.4375 L 7.375 -5.9375 C 7.375 -4.625 7.738281 -3.96875 8.46875 -3.96875 C 8.65625 -3.96875 8.847656 -4.003906 9.046875 -4.078125 C 9.253906 -4.148438 9.410156 -4.222656 9.515625 -4.296875 L 9.6875 -4.421875 L 10.90625 -0.46875 C 9.851562 0.113281 8.65625 0.40625 7.3125 0.40625 C 6.394531 0.40625 5.601562 0.25 4.9375 -0.0625 C 4.28125 -0.382812 3.78125 -0.816406 3.4375 -1.359375 C 3.09375 -1.910156 2.847656 -2.484375 2.703125 -3.078125 C 2.554688 -3.671875 2.484375 -4.3125 2.484375 -5 L 2.484375 -10.4375 L 0.4375 -10.4375 L 0.4375 -14.15625 Z M 2.484375 -14.15625 "/></g></g><g style="fill:#e8e8e8;fill-opacity:1;"><g transform="translate(62.619942, 23.815874)"><path style="stroke:none" d="M 7.8125 -14.5625 C 8.613281 -14.5625 9.410156 -14.46875 10.203125 -14.28125 C 10.992188 -14.101562 11.582031 -13.921875 11.96875 -13.734375 L 12.5625 -13.46875 L 10.953125 -10.265625 C 9.847656 -10.847656 8.800781 -11.140625 7.8125 -11.140625 C 7.257812 -11.140625 6.867188 -11.082031 6.640625 -10.96875 C 6.410156 -10.851562 6.296875 -10.628906 6.296875 -10.296875 C 6.296875 -10.222656 6.300781 -10.148438 6.3125 -10.078125 C 6.332031 -10.003906 6.367188 -9.929688 6.421875 -9.859375 C 6.484375 -9.796875 6.535156 -9.738281 6.578125 -9.6875 C 6.628906 -9.644531 6.707031 -9.597656 6.8125 -9.546875 C 6.925781 -9.492188 7.015625 -9.453125 7.078125 -9.421875 C 7.140625 -9.390625 7.242188 -9.347656 7.390625 -9.296875 C 7.535156 -9.242188 7.644531 -9.203125 7.71875 -9.171875 C 7.800781 -9.148438 7.925781 -9.109375 8.09375 -9.046875 C 8.269531 -8.992188 8.40625 -8.957031 8.5 -8.9375 C 9.070312 -8.769531 9.566406 -8.582031 9.984375 -8.375 C 10.410156 -8.175781 10.859375 -7.898438 11.328125 -7.546875 C 11.796875 -7.203125 12.15625 -6.765625 12.40625 -6.234375 C 12.664062 -5.703125 12.796875 -5.097656 12.796875 -4.421875 C 12.796875 -1.203125 10.5625 0.40625 6.09375 0.40625 C 5.082031 0.40625 4.117188 0.25 3.203125 -0.0625 C 2.296875 -0.375 1.640625 -0.6875 1.234375 -1 L 0.640625 -1.484375 L 2.625 -4.828125 C 2.769531 -4.703125 2.960938 -4.550781 3.203125 -4.375 C 3.441406 -4.195312 3.875 -3.957031 4.5 -3.65625 C 5.125 -3.351562 5.664062 -3.203125 6.125 -3.203125 C 7.132812 -3.203125 7.640625 -3.539062 7.640625 -4.21875 C 7.640625 -4.53125 7.507812 -4.773438 7.25 -4.953125 C 7 -5.128906 6.5625 -5.328125 5.9375 -5.546875 C 5.320312 -5.765625 4.84375 -5.96875 4.5 -6.15625 C 3.613281 -6.613281 2.910156 -7.128906 2.390625 -7.703125 C 1.878906 -8.285156 1.625 -9.054688 1.625 -10.015625 C 1.625 -11.453125 2.179688 -12.566406 3.296875 -13.359375 C 4.410156 -14.160156 5.914062 -14.5625 7.8125 -14.5625 Z M 7.8125 -14.5625 "/></g></g><g style="fill:#e8e8e8;fill-opacity:1;"><g transform="translate(74.808849, 23.815874)"><path style="stroke:none" d="M 2.484375 -14.15625 L 2.484375 -19.421875 L 7.375 -19.421875 L 7.375 -14.15625 L 10.34375 -14.15625 L 10.34375 -10.4375 L 7.375 -10.4375 L 7.375 -5.9375 C 7.375 -4.625 7.738281 -3.96875 8.46875 -3.96875 C 8.65625 -3.96875 8.847656 -4.003906 9.046875 -4.078125 C 9.253906 -4.148438 9.410156 -4.222656 9.515625 -4.296875 L 9.6875 -4.421875 L 10.90625 -0.46875 C 9.851562 0.113281 8.65625 0.40625 7.3125 0.40625 C 6.394531 0.40625 5.601562 0.25 4.9375 -0.0625 C 4.28125 -0.382812 3.78125 -0.816406 3.4375 -1.359375 C 3.09375 -1.910156 2.847656 -2.484375 2.703125 -3.078125 C 2.554688 -3.671875 2.484375 -4.3125 2.484375 -5 L 2.484375 -10.4375 L 0.4375 -10.4375 L 0.4375 -14.15625 Z M 2.484375 -14.15625 "/></g></g><g style="fill:#e8e8e8;fill-opacity:1;"><g transform="translate(84.322668, 23.815874)"><path style="stroke:none" d="M 1.65625 0 L 1.65625 -14.15625 L 6.546875 -14.15625 L 6.546875 -12.109375 L 6.59375 -12.109375 C 6.632812 -12.179688 6.695312 -12.273438 6.78125 -12.390625 C 6.863281 -12.503906 7.039062 -12.695312 7.3125 -12.96875 C 7.582031 -13.25 7.875 -13.5 8.1875 -13.71875 C 8.507812 -13.9375 8.914062 -14.128906 9.40625 -14.296875 C 9.90625 -14.472656 10.410156 -14.5625 10.921875 -14.5625 C 11.460938 -14.5625 11.988281 -14.488281 12.5 -14.34375 C 13.007812 -14.195312 13.382812 -14.050781 13.625 -13.90625 L 14.015625 -13.6875 L 11.96875 -9.546875 C 11.363281 -10.054688 10.519531 -10.3125 9.4375 -10.3125 C 8.84375 -10.3125 8.332031 -10.179688 7.90625 -9.921875 C 7.488281 -9.671875 7.191406 -9.359375 7.015625 -8.984375 C 6.847656 -8.617188 6.726562 -8.304688 6.65625 -8.046875 C 6.582031 -7.796875 6.546875 -7.597656 6.546875 -7.453125 L 6.546875 0 Z M 1.65625 0 "/></g></g><g style="fill:#e8e8e8;fill-opacity:1;"><g transform="translate(96.67704, 23.815874)"><path style="stroke:none" d="M 2.625 -1.75 C 1.300781 -3.195312 0.640625 -4.96875 0.640625 -7.0625 C 0.640625 -9.15625 1.300781 -10.925781 2.625 -12.375 C 3.945312 -13.832031 5.628906 -14.5625 7.671875 -14.5625 C 9.546875 -14.5625 11.09375 -13.972656 12.3125 -12.796875 L 12.3125 -14.15625 L 17.1875 -14.15625 L 17.1875 0 L 12.359375 0 L 12.359375 -1.59375 L 12.3125 -1.59375 C 11.09375 -0.257812 9.546875 0.40625 7.671875 0.40625 C 5.628906 0.40625 3.945312 -0.3125 2.625 -1.75 Z M 6.765625 -9.46875 C 6.140625 -8.84375 5.828125 -8.039062 5.828125 -7.0625 C 5.828125 -6.082031 6.128906 -5.285156 6.734375 -4.671875 C 7.335938 -4.054688 8.140625 -3.75 9.140625 -3.75 C 10.085938 -3.75 10.867188 -4.0625 11.484375 -4.6875 C 12.109375 -5.3125 12.421875 -6.101562 12.421875 -7.0625 C 12.421875 -8.039062 12.101562 -8.84375 11.46875 -9.46875 C 10.832031 -10.09375 10.054688 -10.40625 9.140625 -10.40625 C 8.191406 -10.40625 7.398438 -10.09375 6.765625 -9.46875 Z M 6.765625 -9.46875 "/></g></g><g clip-rule="nonzero" clip-path="url(#294b82f206)"><g style="fill:#e8e8e8;fill-opacity:1;"><g transform="translate(114.133393, 23.815874)"><path style="stroke:none" d="M 16.21875 -12.390625 C 17.550781 -10.953125 18.21875 -9.1875 18.21875 -7.09375 C 18.21875 -5 17.550781 -3.222656 16.21875 -1.765625 C 14.894531 -0.316406 13.210938 0.40625 11.171875 0.40625 C 9.296875 0.40625 7.753906 -0.179688 6.546875 -1.359375 L 6.546875 7.171875 L 1.65625 7.171875 L 1.65625 -14.15625 L 6.484375 -14.15625 L 6.484375 -12.5625 L 6.546875 -12.5625 C 7.753906 -13.894531 9.296875 -14.5625 11.171875 -14.5625 C 13.210938 -14.5625 14.894531 -13.835938 16.21875 -12.390625 Z M 12.078125 -4.6875 C 12.710938 -5.3125 13.03125 -6.109375 13.03125 -7.078125 C 13.03125 -8.054688 12.722656 -8.851562 12.109375 -9.46875 C 11.503906 -10.09375 10.707031 -10.40625 9.71875 -10.40625 C 8.757812 -10.40625 7.96875 -10.09375 7.34375 -9.46875 C 6.726562 -8.84375 6.421875 -8.050781 6.421875 -7.09375 C 6.421875 -6.113281 6.738281 -5.3125 7.375 -4.6875 C 8.007812 -4.0625 8.789062 -3.75 9.71875 -3.75 C 10.65625 -3.75 11.441406 -4.0625 12.078125 -4.6875 Z M 12.078125 -4.6875 "/></g></g></g></g></svg>