<svg xmlns="http://www.w3.org/2000/svg" xmlns:xlink="http://www.w3.org/1999/xlink" width="200" zoomAndPan="magnify" viewBox="0 0 150 30.000001" height="40" preserveAspectRatio="xMidYMid meet" version="1.2"><defs/><g id="3d9faa4435"><g style="fill:#e8e8e8;fill-opacity:1;"><g transform="translate(3.870965, 24.54168)"><path style="stroke:none" d="M 20.46875 0 L 19.40625 -13.5 L 19.265625 -13.5 L 14.59375 -0.140625 L 11.5 -0.140625 L 6.84375 -13.5 L 6.703125 -13.5 L 5.625 0 L 0.4375 0 L 2.484375 -22.765625 L 8 -22.765625 L 13.046875 -9.625 L 18.109375 -22.765625 L 23.625 -22.765625 L 25.65625 0 Z M 20.46875 0 "/></g></g><g style="fill:#e8e8e8;fill-opacity:1;"><g transform="translate(28.580392, 24.54168)"><path style="stroke:none" d="M 3 -1.6875 C 1.425781 -3.082031 0.640625 -4.875 0.640625 -7.0625 C 0.640625 -9.25 1.457031 -11.046875 3.09375 -12.453125 C 4.726562 -13.859375 6.75 -14.5625 9.15625 -14.5625 C 11.53125 -14.5625 13.53125 -13.851562 15.15625 -12.4375 C 16.789062 -11.019531 17.609375 -9.226562 17.609375 -7.0625 C 17.609375 -4.894531 16.8125 -3.109375 15.21875 -1.703125 C 13.625 -0.296875 11.601562 0.40625 9.15625 0.40625 C 6.625 0.40625 4.570312 -0.289062 3 -1.6875 Z M 6.765625 -9.46875 C 6.140625 -8.84375 5.828125 -8.039062 5.828125 -7.0625 C 5.828125 -6.082031 6.128906 -5.285156 6.734375 -4.671875 C 7.335938 -4.054688 8.140625 -3.75 9.140625 -3.75 C 10.085938 -3.75 10.867188 -4.0625 11.484375 -4.6875 C 12.109375 -5.3125 12.421875 -6.101562 12.421875 -7.0625 C 12.421875 -8.039062 12.101562 -8.84375 11.46875 -9.46875 C 10.832031 -10.09375 10.054688 -10.40625 9.140625 -10.40625 C 8.191406 -10.40625 7.398438 -10.09375 6.765625 -9.46875 Z M 6.765625 -9.46875 "/></g></g><g style="fill:#e8e8e8;fill-opacity:1;"><g transform="translate(45.430016, 24.54168)"><path style="stroke:none" d="M 2.484375 -14.15625 L 2.484375 -19.421875 L 7.375 -19.421875 L 7.375 -14.15625 L 10.34375 -14.15625 L 10.34375 -10.4375 L 7.375 -10.4375 L 7.375 -5.9375 C 7.375 -4.625 7.738281 -3.96875 8.46875 -3.96875 C 8.65625 -3.96875 8.847656 -4.003906 9.046875 -4.078125 C 9.253906 -4.148438 9.410156 -4.222656 9.515625 -4.296875 L 9.6875 -4.421875 L 10.90625 -0.46875 C 9.851562 0.113281 8.65625 0.40625 7.3125 0.40625 C 6.394531 0.40625 5.601562 0.25 4.9375 -0.0625 C 4.28125 -0.382812 3.78125 -0.816406 3.4375 -1.359375 C 3.09375 -1.910156 2.847656 -2.484375 2.703125 -3.078125 C 2.554688 -3.671875 2.484375 -4.3125 2.484375 -5 L 2.484375 -10.4375 L 0.4375 -10.4375 L 0.4375 -14.15625 Z M 2.484375 -14.15625 "/></g></g><g style="fill:#e8e8e8;fill-opacity:1;"><g transform="translate(54.943834, 24.54168)"><path style="stroke:none" d="M 2.125 -22.046875 C 2.695312 -22.617188 3.378906 -22.90625 4.171875 -22.90625 C 4.960938 -22.90625 5.640625 -22.617188 6.203125 -22.046875 C 6.773438 -21.472656 7.0625 -20.789062 7.0625 -20 C 7.0625 -19.207031 6.773438 -18.523438 6.203125 -17.953125 C 5.640625 -17.390625 4.960938 -17.109375 4.171875 -17.109375 C 3.378906 -17.109375 2.695312 -17.390625 2.125 -17.953125 C 1.550781 -18.523438 1.265625 -19.207031 1.265625 -20 C 1.265625 -20.789062 1.550781 -21.472656 2.125 -22.046875 Z M 1.65625 -14.15625 L 1.65625 0 L 6.546875 0 L 6.546875 -14.15625 Z M 1.65625 -14.15625 "/></g></g><g style="fill:#e8e8e8;fill-opacity:1;"><g transform="translate(61.892873, 24.54168)"><path style="stroke:none" d="M 3 -1.6875 C 1.425781 -3.082031 0.640625 -4.875 0.640625 -7.0625 C 0.640625 -9.25 1.457031 -11.046875 3.09375 -12.453125 C 4.726562 -13.859375 6.75 -14.5625 9.15625 -14.5625 C 11.53125 -14.5625 13.53125 -13.851562 15.15625 -12.4375 C 16.789062 -11.019531 17.609375 -9.226562 17.609375 -7.0625 C 17.609375 -4.894531 16.8125 -3.109375 15.21875 -1.703125 C 13.625 -0.296875 11.601562 0.40625 9.15625 0.40625 C 6.625 0.40625 4.570312 -0.289062 3 -1.6875 Z M 6.765625 -9.46875 C 6.140625 -8.84375 5.828125 -8.039062 5.828125 -7.0625 C 5.828125 -6.082031 6.128906 -5.285156 6.734375 -4.671875 C 7.335938 -4.054688 8.140625 -3.75 9.140625 -3.75 C 10.085938 -3.75 10.867188 -4.0625 11.484375 -4.6875 C 12.109375 -5.3125 12.421875 -6.101562 12.421875 -7.0625 C 12.421875 -8.039062 12.101562 -8.84375 11.46875 -9.46875 C 10.832031 -10.09375 10.054688 -10.40625 9.140625 -10.40625 C 8.191406 -10.40625 7.398438 -10.09375 6.765625 -9.46875 Z M 6.765625 -9.46875 "/></g></g><g style="fill:#e8e8e8;fill-opacity:1;"><g transform="translate(78.742497, 24.54168)"><path style="stroke:none" d="M 1.65625 0 L 1.65625 -14.15625 L 6.546875 -14.15625 L 6.546875 -12.671875 L 6.59375 -12.671875 C 7.863281 -13.929688 9.21875 -14.5625 10.65625 -14.5625 C 11.351562 -14.5625 12.046875 -14.46875 12.734375 -14.28125 C 13.421875 -14.101562 14.082031 -13.820312 14.71875 -13.4375 C 15.351562 -13.050781 15.867188 -12.503906 16.265625 -11.796875 C 16.660156 -11.085938 16.859375 -10.265625 16.859375 -9.328125 L 16.859375 0 L 11.96875 0 L 11.96875 -8 C 11.96875 -8.738281 11.734375 -9.382812 11.265625 -9.9375 C 10.796875 -10.488281 10.1875 -10.765625 9.4375 -10.765625 C 8.695312 -10.765625 8.03125 -10.476562 7.4375 -9.90625 C 6.84375 -9.332031 6.546875 -8.695312 6.546875 -8 L 6.546875 0 Z M 1.65625 0 "/></g></g></g></svg>