<svg xmlns="http://www.w3.org/2000/svg" xmlns:xlink="http://www.w3.org/1999/xlink" width="200" zoomAndPan="magnify" viewBox="0 0 150 30.000001" height="40" preserveAspectRatio="xMidYMid meet" version="1.2"><defs><clipPath id="4aec038187"><path d="M 2.417969 1 L 14 1 L 14 25 L 2.417969 25 Z M 2.417969 1 "/></clipPath><clipPath id="4a94f378f7"><path d="M 115 9 L 132 9 L 132 29.03125 L 115 29.03125 Z M 115 9 "/></clipPath></defs><g id="f301e56582"><g clip-rule="nonzero" clip-path="url(#4aec038187)"><g style="fill:#e8e8e8;fill-opacity:1;"><g transform="translate(2.419352, 23.815874)"><path style="stroke:none" d="M 11.5625 -22.765625 L 11.5625 -6.421875 C 11.5625 -4.203125 10.945312 -2.507812 9.71875 -1.34375 C 8.5 -0.175781 6.75 0.40625 4.46875 0.40625 C 3.863281 0.40625 3.265625 0.332031 2.671875 0.1875 C 2.085938 0.0390625 1.59375 -0.132812 1.1875 -0.34375 C 0.78125 -0.550781 0.414062 -0.765625 0.09375 -0.984375 C -0.226562 -1.210938 -0.460938 -1.398438 -0.609375 -1.546875 L -0.859375 -1.765625 L 0.796875 -6.09375 C 1.878906 -5.0625 2.863281 -4.546875 3.75 -4.546875 C 4.539062 -4.546875 5.175781 -4.804688 5.65625 -5.328125 C 6.132812 -5.859375 6.375 -6.664062 6.375 -7.75 L 6.375 -22.765625 Z M 11.5625 -22.765625 "/></g></g></g><g style="fill:#e8e8e8;fill-opacity:1;"><g transform="translate(13.973953, 23.815874)"><path style="stroke:none" d="M 2.625 -1.75 C 1.300781 -3.195312 0.640625 -4.96875 0.640625 -7.0625 C 0.640625 -9.15625 1.300781 -10.925781 2.625 -12.375 C 3.945312 -13.832031 5.628906 -14.5625 7.671875 -14.5625 C 9.546875 -14.5625 11.09375 -13.972656 12.3125 -12.796875 L 12.3125 -14.15625 L 17.1875 -14.15625 L 17.1875 0 L 12.359375 0 L 12.359375 -1.59375 L 12.3125 -1.59375 C 11.09375 -0.257812 9.546875 0.40625 7.671875 0.40625 C 5.628906 0.40625 3.945312 -0.3125 2.625 -1.75 Z M 6.765625 -9.46875 C 6.140625 -8.84375 5.828125 -8.039062 5.828125 -7.0625 C 5.828125 -6.082031 6.128906 -5.285156 6.734375 -4.671875 C 7.335938 -4.054688 8.140625 -3.75 9.140625 -3.75 C 10.085938 -3.75 10.867188 -4.0625 11.484375 -4.6875 C 12.109375 -5.3125 12.421875 -6.101562 12.421875 -7.0625 C 12.421875 -8.039062 12.101562 -8.84375 11.46875 -9.46875 C 10.832031 -10.09375 10.054688 -10.40625 9.140625 -10.40625 C 8.191406 -10.40625 7.398438 -10.09375 6.765625 -9.46875 Z M 6.765625 -9.46875 "/></g></g><g style="fill:#e8e8e8;fill-opacity:1;"><g transform="translate(31.430307, 23.815874)"><path style="stroke:none" d="M 5.25 -14.15625 L 8.6875 -6.453125 L 12.140625 -14.15625 L 17.9375 -14.15625 L 10.34375 0 L 7.03125 0 L -0.546875 -14.15625 Z M 5.25 -14.15625 "/></g></g><g style="fill:#e8e8e8;fill-opacity:1;"><g transform="translate(47.425004, 23.815874)"><path style="stroke:none" d="M 2.625 -1.75 C 1.300781 -3.195312 0.640625 -4.96875 0.640625 -7.0625 C 0.640625 -9.15625 1.300781 -10.925781 2.625 -12.375 C 3.945312 -13.832031 5.628906 -14.5625 7.671875 -14.5625 C 9.546875 -14.5625 11.09375 -13.972656 12.3125 -12.796875 L 12.3125 -14.15625 L 17.1875 -14.15625 L 17.1875 0 L 12.359375 0 L 12.359375 -1.59375 L 12.3125 -1.59375 C 11.09375 -0.257812 9.546875 0.40625 7.671875 0.40625 C 5.628906 0.40625 3.945312 -0.3125 2.625 -1.75 Z M 6.765625 -9.46875 C 6.140625 -8.84375 5.828125 -8.039062 5.828125 -7.0625 C 5.828125 -6.082031 6.128906 -5.285156 6.734375 -4.671875 C 7.335938 -4.054688 8.140625 -3.75 9.140625 -3.75 C 10.085938 -3.75 10.867188 -4.0625 11.484375 -4.6875 C 12.109375 -5.3125 12.421875 -6.101562 12.421875 -7.0625 C 12.421875 -8.039062 12.101562 -8.84375 11.46875 -9.46875 C 10.832031 -10.09375 10.054688 -10.40625 9.140625 -10.40625 C 8.191406 -10.40625 7.398438 -10.09375 6.765625 -9.46875 Z M 6.765625 -9.46875 "/></g></g><g style="fill:#e8e8e8;fill-opacity:1;"><g transform="translate(64.881358, 23.815874)"><path style="stroke:none" d="M 10.046875 -23.171875 C 11.273438 -23.171875 12.476562 -22.992188 13.65625 -22.640625 C 14.832031 -22.285156 15.707031 -21.929688 16.28125 -21.578125 L 17.109375 -21.03125 L 15.015625 -16.890625 C 14.847656 -16.992188 14.613281 -17.132812 14.3125 -17.3125 C 14.019531 -17.488281 13.46875 -17.722656 12.65625 -18.015625 C 11.851562 -18.304688 11.101562 -18.453125 10.40625 -18.453125 C 9.539062 -18.453125 8.875 -18.269531 8.40625 -17.90625 C 7.9375 -17.539062 7.703125 -17.046875 7.703125 -16.421875 C 7.703125 -16.109375 7.8125 -15.816406 8.03125 -15.546875 C 8.25 -15.285156 8.625 -15 9.15625 -14.6875 C 9.695312 -14.382812 10.164062 -14.140625 10.5625 -13.953125 C 10.96875 -13.773438 11.59375 -13.503906 12.4375 -13.140625 C 13.914062 -12.515625 15.171875 -11.660156 16.203125 -10.578125 C 17.242188 -9.503906 17.765625 -8.285156 17.765625 -6.921875 C 17.765625 -5.617188 17.53125 -4.476562 17.0625 -3.5 C 16.59375 -2.53125 15.945312 -1.769531 15.125 -1.21875 C 14.3125 -0.664062 13.40625 -0.257812 12.40625 0 C 11.414062 0.269531 10.34375 0.40625 9.1875 0.40625 C 8.195312 0.40625 7.222656 0.304688 6.265625 0.109375 C 5.304688 -0.0859375 4.503906 -0.335938 3.859375 -0.640625 C 3.210938 -0.953125 2.632812 -1.253906 2.125 -1.546875 C 1.613281 -1.835938 1.238281 -2.085938 1 -2.296875 L 0.640625 -2.59375 L 3.234375 -6.953125 C 3.453125 -6.765625 3.753906 -6.53125 4.140625 -6.25 C 4.523438 -5.96875 5.207031 -5.585938 6.1875 -5.109375 C 7.175781 -4.628906 8.046875 -4.390625 8.796875 -4.390625 C 10.992188 -4.390625 12.09375 -5.132812 12.09375 -6.625 C 12.09375 -6.9375 12.007812 -7.222656 11.84375 -7.484375 C 11.6875 -7.753906 11.410156 -8.019531 11.015625 -8.28125 C 10.628906 -8.550781 10.28125 -8.765625 9.96875 -8.921875 C 9.664062 -9.078125 9.171875 -9.316406 8.484375 -9.640625 C 7.796875 -9.960938 7.285156 -10.207031 6.953125 -10.375 C 5.578125 -11.050781 4.507812 -11.898438 3.75 -12.921875 C 3 -13.941406 2.625 -15.039062 2.625 -16.21875 C 2.625 -18.257812 3.375 -19.925781 4.875 -21.21875 C 6.382812 -22.519531 8.109375 -23.171875 10.046875 -23.171875 Z M 10.046875 -23.171875 "/></g></g><g style="fill:#e8e8e8;fill-opacity:1;"><g transform="translate(82.034346, 23.815874)"><path style="stroke:none" d="M 9.1875 -10.5625 C 8.269531 -10.5625 7.476562 -10.222656 6.8125 -9.546875 C 6.15625 -8.867188 5.828125 -8.050781 5.828125 -7.09375 C 5.828125 -6.113281 6.15625 -5.285156 6.8125 -4.609375 C 7.476562 -3.929688 8.269531 -3.59375 9.1875 -3.59375 C 9.625 -3.59375 10.039062 -3.644531 10.4375 -3.75 C 10.832031 -3.863281 11.125 -3.972656 11.3125 -4.078125 L 11.5625 -4.25 L 13.21875 -0.859375 C 13.09375 -0.765625 12.910156 -0.644531 12.671875 -0.5 C 12.441406 -0.363281 11.914062 -0.179688 11.09375 0.046875 C 10.28125 0.285156 9.40625 0.40625 8.46875 0.40625 C 6.394531 0.40625 4.570312 -0.320312 3 -1.78125 C 1.425781 -3.238281 0.640625 -4.988281 0.640625 -7.03125 C 0.640625 -9.09375 1.425781 -10.863281 3 -12.34375 C 4.570312 -13.820312 6.394531 -14.5625 8.46875 -14.5625 C 9.40625 -14.5625 10.269531 -14.453125 11.0625 -14.234375 C 11.851562 -14.015625 12.414062 -13.796875 12.75 -13.578125 L 13.21875 -13.25 L 11.5625 -9.90625 C 10.957031 -10.34375 10.164062 -10.5625 9.1875 -10.5625 Z M 9.1875 -10.5625 "/></g></g><g style="fill:#e8e8e8;fill-opacity:1;"><g transform="translate(94.195676, 23.815874)"><path style="stroke:none" d="M 1.65625 0 L 1.65625 -14.15625 L 6.546875 -14.15625 L 6.546875 -12.109375 L 6.59375 -12.109375 C 6.632812 -12.179688 6.695312 -12.273438 6.78125 -12.390625 C 6.863281 -12.503906 7.039062 -12.695312 7.3125 -12.96875 C 7.582031 -13.25 7.875 -13.5 8.1875 -13.71875 C 8.507812 -13.9375 8.914062 -14.128906 9.40625 -14.296875 C 9.90625 -14.472656 10.410156 -14.5625 10.921875 -14.5625 C 11.460938 -14.5625 11.988281 -14.488281 12.5 -14.34375 C 13.007812 -14.195312 13.382812 -14.050781 13.625 -13.90625 L 14.015625 -13.6875 L 11.96875 -9.546875 C 11.363281 -10.054688 10.519531 -10.3125 9.4375 -10.3125 C 8.84375 -10.3125 8.332031 -10.179688 7.90625 -9.921875 C 7.488281 -9.671875 7.191406 -9.359375 7.015625 -8.984375 C 6.847656 -8.617188 6.726562 -8.304688 6.65625 -8.046875 C 6.582031 -7.796875 6.546875 -7.597656 6.546875 -7.453125 L 6.546875 0 Z M 1.65625 0 "/></g></g><g style="fill:#e8e8e8;fill-opacity:1;"><g transform="translate(106.550048, 23.815874)"><path style="stroke:none" d="M 2.125 -22.046875 C 2.695312 -22.617188 3.378906 -22.90625 4.171875 -22.90625 C 4.960938 -22.90625 5.640625 -22.617188 6.203125 -22.046875 C 6.773438 -21.472656 7.0625 -20.789062 7.0625 -20 C 7.0625 -19.207031 6.773438 -18.523438 6.203125 -17.953125 C 5.640625 -17.390625 4.960938 -17.109375 4.171875 -17.109375 C 3.378906 -17.109375 2.695312 -17.390625 2.125 -17.953125 C 1.550781 -18.523438 1.265625 -19.207031 1.265625 -20 C 1.265625 -20.789062 1.550781 -21.472656 2.125 -22.046875 Z M 1.65625 -14.15625 L 1.65625 0 L 6.546875 0 L 6.546875 -14.15625 Z M 1.65625 -14.15625 "/></g></g><g clip-rule="nonzero" clip-path="url(#4a94f378f7)"><g style="fill:#e8e8e8;fill-opacity:1;"><g transform="translate(113.499087, 23.815874)"><path style="stroke:none" d="M 16.21875 -12.390625 C 17.550781 -10.953125 18.21875 -9.1875 18.21875 -7.09375 C 18.21875 -5 17.550781 -3.222656 16.21875 -1.765625 C 14.894531 -0.316406 13.210938 0.40625 11.171875 0.40625 C 9.296875 0.40625 7.753906 -0.179688 6.546875 -1.359375 L 6.546875 7.171875 L 1.65625 7.171875 L 1.65625 -14.15625 L 6.484375 -14.15625 L 6.484375 -12.5625 L 6.546875 -12.5625 C 7.753906 -13.894531 9.296875 -14.5625 11.171875 -14.5625 C 13.210938 -14.5625 14.894531 -13.835938 16.21875 -12.390625 Z M 12.078125 -4.6875 C 12.710938 -5.3125 13.03125 -6.109375 13.03125 -7.078125 C 13.03125 -8.054688 12.722656 -8.851562 12.109375 -9.46875 C 11.503906 -10.09375 10.707031 -10.40625 9.71875 -10.40625 C 8.757812 -10.40625 7.96875 -10.09375 7.34375 -9.46875 C 6.726562 -8.84375 6.421875 -8.050781 6.421875 -7.09375 C 6.421875 -6.113281 6.738281 -5.3125 7.375 -4.6875 C 8.007812 -4.0625 8.789062 -3.75 9.71875 -3.75 C 10.65625 -3.75 11.441406 -4.0625 12.078125 -4.6875 Z M 12.078125 -4.6875 "/></g></g></g><g style="fill:#e8e8e8;fill-opacity:1;"><g transform="translate(130.955441, 23.815874)"><path style="stroke:none" d="M 2.484375 -14.15625 L 2.484375 -19.421875 L 7.375 -19.421875 L 7.375 -14.15625 L 10.34375 -14.15625 L 10.34375 -10.4375 L 7.375 -10.4375 L 7.375 -5.9375 C 7.375 -4.625 7.738281 -3.96875 8.46875 -3.96875 C 8.65625 -3.96875 8.847656 -4.003906 9.046875 -4.078125 C 9.253906 -4.148438 9.410156 -4.222656 9.515625 -4.296875 L 9.6875 -4.421875 L 10.90625 -0.46875 C 9.851562 0.113281 8.65625 0.40625 7.3125 0.40625 C 6.394531 0.40625 5.601562 0.25 4.9375 -0.0625 C 4.28125 -0.382812 3.78125 -0.816406 3.4375 -1.359375 C 3.09375 -1.910156 2.847656 -2.484375 2.703125 -3.078125 C 2.554688 -3.671875 2.484375 -4.3125 2.484375 -5 L 2.484375 -10.4375 L 0.4375 -10.4375 L 0.4375 -14.15625 Z M 2.484375 -14.15625 "/></g></g></g></svg>