<svg xmlns="http://www.w3.org/2000/svg" xmlns:xlink="http://www.w3.org/1999/xlink" width="130" zoomAndPan="magnify" viewBox="0 0 97.5 30.000001" height="40" preserveAspectRatio="xMidYMid meet" version="1.2"><defs><clipPath id="f69e5ec083"><path d="M 63 3 L 72 3 L 72 29.03125 L 63 29.03125 Z M 63 3 "/></clipPath></defs><g id="c871b2882d"><g style="fill:#d9d9d9;fill-opacity:1;"><g transform="translate(5.685482, 23.109851)"><path style="stroke:none" d="M 5.734375 -11.828125 L 5.734375 0 L 1.390625 0 L 1.390625 -19.046875 L 5.734375 -19.046875 L 13.296875 -7.234375 L 13.34375 -7.234375 L 13.34375 -19.046875 L 17.6875 -19.046875 L 17.6875 0 L 13.34375 0 L 5.765625 -11.828125 Z M 5.734375 -11.828125 "/></g></g><g style="fill:#d9d9d9;fill-opacity:1;"><g transform="translate(23.605886, 23.109851)"><path style="stroke:none" d="M 13.375 -5.359375 L 4.78125 -5.359375 C 4.78125 -4.523438 5.046875 -3.90625 5.578125 -3.5 C 6.117188 -3.101562 6.707031 -2.90625 7.34375 -2.90625 C 8.007812 -2.90625 8.53125 -2.992188 8.90625 -3.171875 C 9.289062 -3.347656 9.734375 -3.695312 10.234375 -4.21875 L 13.1875 -2.75 C 11.957031 -0.6875 9.910156 0.34375 7.046875 0.34375 C 5.253906 0.34375 3.71875 -0.265625 2.4375 -1.484375 C 1.164062 -2.710938 0.53125 -4.1875 0.53125 -5.90625 C 0.53125 -7.632812 1.164062 -9.113281 2.4375 -10.34375 C 3.71875 -11.570312 5.253906 -12.1875 7.046875 -12.1875 C 8.921875 -12.1875 10.445312 -11.644531 11.625 -10.5625 C 12.800781 -9.476562 13.390625 -7.925781 13.390625 -5.90625 C 13.390625 -5.632812 13.382812 -5.453125 13.375 -5.359375 Z M 4.890625 -7.625 L 9.40625 -7.625 C 9.3125 -8.238281 9.066406 -8.707031 8.671875 -9.03125 C 8.273438 -9.363281 7.769531 -9.53125 7.15625 -9.53125 C 6.476562 -9.53125 5.9375 -9.351562 5.53125 -9 C 5.132812 -8.644531 4.921875 -8.1875 4.890625 -7.625 Z M 4.890625 -7.625 "/></g></g><g style="fill:#d9d9d9;fill-opacity:1;"><g transform="translate(36.376482, 23.109851)"><path style="stroke:none" d="M 15.109375 0 L 10.15625 0 L 7.546875 -3.34375 L 4.9375 0 L 0 0 L 5.0625 -6.1875 L 0.71875 -11.84375 L 5.5 -11.84375 L 7.546875 -9.09375 L 9.609375 -11.84375 L 14.390625 -11.84375 L 10.046875 -6.1875 Z M 15.109375 0 "/></g></g><g style="fill:#d9d9d9;fill-opacity:1;"><g transform="translate(50.32484, 23.109851)"><path style="stroke:none" d="M 2.078125 -11.84375 L 2.078125 -16.265625 L 6.171875 -16.265625 L 6.171875 -11.84375 L 8.65625 -11.84375 L 8.65625 -8.734375 L 6.171875 -8.734375 L 6.171875 -4.96875 C 6.171875 -3.875 6.476562 -3.328125 7.09375 -3.328125 C 7.25 -3.328125 7.410156 -3.359375 7.578125 -3.421875 C 7.742188 -3.484375 7.875 -3.546875 7.96875 -3.609375 L 8.109375 -3.6875 L 9.125 -0.390625 C 8.25 0.0976562 7.25 0.34375 6.125 0.34375 C 5.351562 0.34375 4.6875 0.207031 4.125 -0.0625 C 3.570312 -0.332031 3.15625 -0.691406 2.875 -1.140625 C 2.59375 -1.597656 2.390625 -2.078125 2.265625 -2.578125 C 2.140625 -3.078125 2.078125 -3.613281 2.078125 -4.1875 L 2.078125 -8.734375 L 0.375 -8.734375 L 0.375 -11.84375 Z M 2.078125 -11.84375 "/></g></g><g style="fill:#d9d9d9;fill-opacity:1;"><g transform="translate(58.292032, 23.109851)"><path style="stroke:none" d="M 4.015625 -4.9375 C 4.753906 -4.9375 5.378906 -4.675781 5.890625 -4.15625 C 6.410156 -3.644531 6.671875 -3.019531 6.671875 -2.28125 C 6.671875 -1.5625 6.410156 -0.941406 5.890625 -0.421875 C 5.378906 0.0859375 4.753906 0.34375 4.015625 0.34375 C 3.296875 0.34375 2.675781 0.0859375 2.15625 -0.421875 C 1.644531 -0.941406 1.390625 -1.5625 1.390625 -2.28125 C 1.390625 -3.019531 1.644531 -3.644531 2.15625 -4.15625 C 2.675781 -4.675781 3.296875 -4.9375 4.015625 -4.9375 Z M 4.015625 -4.9375 "/></g></g><g clip-rule="nonzero" clip-path="url(#f69e5ec083)"><g style="fill:#d9d9d9;fill-opacity:1;"><g transform="translate(65.196926, 23.109851)"><path style="stroke:none" d="M 1.78125 -18.453125 C 2.257812 -18.929688 2.828125 -19.171875 3.484375 -19.171875 C 4.148438 -19.171875 4.71875 -18.929688 5.1875 -18.453125 C 5.664062 -17.972656 5.90625 -17.398438 5.90625 -16.734375 C 5.90625 -16.078125 5.664062 -15.507812 5.1875 -15.03125 C 4.71875 -14.550781 4.148438 -14.3125 3.484375 -14.3125 C 2.828125 -14.3125 2.257812 -14.550781 1.78125 -15.03125 C 1.300781 -15.507812 1.0625 -16.078125 1.0625 -16.734375 C 1.0625 -17.398438 1.300781 -17.972656 1.78125 -18.453125 Z M 1.390625 -11.84375 L 1.390625 1.046875 C 1.390625 2.117188 1.007812 2.65625 0.25 2.65625 C 0.09375 2.65625 -0.0664062 2.628906 -0.234375 2.578125 C -0.398438 2.523438 -0.535156 2.46875 -0.640625 2.40625 L -0.78125 2.3125 L -2.0625 5.609375 C -2.03125 5.628906 -1.925781 5.675781 -1.75 5.75 C -1.582031 5.820312 -1.457031 5.878906 -1.375 5.921875 C -1.289062 5.960938 -1.144531 6.015625 -0.9375 6.078125 C -0.738281 6.140625 -0.546875 6.1875 -0.359375 6.21875 C -0.179688 6.25 0.0390625 6.273438 0.3125 6.296875 C 0.59375 6.328125 0.890625 6.34375 1.203125 6.34375 C 1.972656 6.34375 2.648438 6.207031 3.234375 5.9375 C 3.816406 5.675781 4.257812 5.316406 4.5625 4.859375 C 4.875 4.410156 5.101562 3.929688 5.25 3.421875 C 5.394531 2.921875 5.46875 2.390625 5.46875 1.828125 L 5.46875 -11.84375 Z M 1.390625 -11.84375 "/></g></g></g><g style="fill:#d9d9d9;fill-opacity:1;"><g transform="translate(70.900975, 23.109851)"><path style="stroke:none" d="M 6.53125 -12.1875 C 7.207031 -12.1875 7.875 -12.109375 8.53125 -11.953125 C 9.195312 -11.804688 9.691406 -11.65625 10.015625 -11.5 L 10.5 -11.265625 L 9.171875 -8.59375 C 8.242188 -9.082031 7.363281 -9.328125 6.53125 -9.328125 C 6.070312 -9.328125 5.742188 -9.273438 5.546875 -9.171875 C 5.359375 -9.078125 5.265625 -8.890625 5.265625 -8.609375 C 5.265625 -8.546875 5.269531 -8.484375 5.28125 -8.421875 C 5.300781 -8.367188 5.332031 -8.3125 5.375 -8.25 C 5.425781 -8.195312 5.46875 -8.148438 5.5 -8.109375 C 5.539062 -8.078125 5.609375 -8.035156 5.703125 -7.984375 C 5.796875 -7.941406 5.867188 -7.910156 5.921875 -7.890625 C 5.972656 -7.867188 6.0625 -7.832031 6.1875 -7.78125 C 6.3125 -7.738281 6.40625 -7.703125 6.46875 -7.671875 C 6.53125 -7.648438 6.632812 -7.613281 6.78125 -7.5625 C 6.925781 -7.519531 7.035156 -7.492188 7.109375 -7.484375 C 7.585938 -7.347656 8.003906 -7.191406 8.359375 -7.015625 C 8.710938 -6.847656 9.082031 -6.617188 9.46875 -6.328125 C 9.863281 -6.035156 10.171875 -5.664062 10.390625 -5.21875 C 10.609375 -4.769531 10.71875 -4.257812 10.71875 -3.6875 C 10.71875 -1 8.847656 0.34375 5.109375 0.34375 C 4.253906 0.34375 3.445312 0.210938 2.6875 -0.046875 C 1.925781 -0.304688 1.378906 -0.566406 1.046875 -0.828125 L 0.53125 -1.25 L 2.1875 -4.046875 C 2.3125 -3.929688 2.472656 -3.800781 2.671875 -3.65625 C 2.878906 -3.507812 3.242188 -3.304688 3.765625 -3.046875 C 4.285156 -2.796875 4.738281 -2.671875 5.125 -2.671875 C 5.96875 -2.671875 6.390625 -2.957031 6.390625 -3.53125 C 6.390625 -3.789062 6.28125 -3.992188 6.0625 -4.140625 C 5.851562 -4.285156 5.488281 -4.453125 4.96875 -4.640625 C 4.457031 -4.828125 4.054688 -5 3.765625 -5.15625 C 3.023438 -5.539062 2.4375 -5.972656 2 -6.453125 C 1.570312 -6.941406 1.359375 -7.585938 1.359375 -8.390625 C 1.359375 -9.585938 1.820312 -10.519531 2.75 -11.1875 C 3.6875 -11.851562 4.945312 -12.1875 6.53125 -12.1875 Z M 6.53125 -12.1875 "/></g></g></g></svg>