<svg xmlns="http://www.w3.org/2000/svg" xmlns:xlink="http://www.w3.org/1999/xlink" width="130" zoomAndPan="magnify" viewBox="0 0 97.5 30.000001" height="40" preserveAspectRatio="xMidYMid meet" version="1.2"><defs/><g id="88cd4313c3"><g style="fill:#d9d9d9;fill-opacity:1;"><g transform="translate(5.685482, 23.109851)"><path style="stroke:none" d="M 1.390625 -19.046875 L 8.203125 -19.046875 C 10.035156 -19.046875 11.523438 -18.554688 12.671875 -17.578125 C 13.828125 -16.609375 14.40625 -15.210938 14.40625 -13.390625 C 14.40625 -11.992188 14.054688 -10.820312 13.359375 -9.875 C 12.660156 -8.925781 11.707031 -8.257812 10.5 -7.875 L 17.0625 0 L 11.546875 0 L 5.734375 -7.53125 L 5.734375 0 L 1.390625 0 Z M 5.734375 -10.59375 L 6.234375 -10.59375 C 6.628906 -10.59375 6.96875 -10.597656 7.25 -10.609375 C 7.53125 -10.628906 7.847656 -10.6875 8.203125 -10.78125 C 8.554688 -10.875 8.835938 -11.003906 9.046875 -11.171875 C 9.265625 -11.347656 9.453125 -11.597656 9.609375 -11.921875 C 9.765625 -12.242188 9.84375 -12.632812 9.84375 -13.09375 C 9.84375 -13.550781 9.765625 -13.941406 9.609375 -14.265625 C 9.453125 -14.585938 9.265625 -14.832031 9.046875 -15 C 8.835938 -15.175781 8.554688 -15.3125 8.203125 -15.40625 C 7.847656 -15.5 7.53125 -15.550781 7.25 -15.5625 C 6.96875 -15.582031 6.628906 -15.59375 6.234375 -15.59375 L 5.734375 -15.59375 Z M 5.734375 -10.59375 "/></g></g><g style="fill:#d9d9d9;fill-opacity:1;"><g transform="translate(21.065623, 23.109851)"><path style="stroke:none" d="M 13.375 -5.359375 L 4.78125 -5.359375 C 4.78125 -4.523438 5.046875 -3.90625 5.578125 -3.5 C 6.117188 -3.101562 6.707031 -2.90625 7.34375 -2.90625 C 8.007812 -2.90625 8.53125 -2.992188 8.90625 -3.171875 C 9.289062 -3.347656 9.734375 -3.695312 10.234375 -4.21875 L 13.1875 -2.75 C 11.957031 -0.6875 9.910156 0.34375 7.046875 0.34375 C 5.253906 0.34375 3.71875 -0.265625 2.4375 -1.484375 C 1.164062 -2.710938 0.53125 -4.1875 0.53125 -5.90625 C 0.53125 -7.632812 1.164062 -9.113281 2.4375 -10.34375 C 3.71875 -11.570312 5.253906 -12.1875 7.046875 -12.1875 C 8.921875 -12.1875 10.445312 -11.644531 11.625 -10.5625 C 12.800781 -9.476562 13.390625 -7.925781 13.390625 -5.90625 C 13.390625 -5.632812 13.382812 -5.453125 13.375 -5.359375 Z M 4.890625 -7.625 L 9.40625 -7.625 C 9.3125 -8.238281 9.066406 -8.707031 8.671875 -9.03125 C 8.273438 -9.363281 7.769531 -9.53125 7.15625 -9.53125 C 6.476562 -9.53125 5.9375 -9.351562 5.53125 -9 C 5.132812 -8.644531 4.921875 -8.1875 4.890625 -7.625 Z M 4.890625 -7.625 "/></g></g><g style="fill:#d9d9d9;fill-opacity:1;"><g transform="translate(33.836219, 23.109851)"><path style="stroke:none" d="M 2.1875 -1.46875 C 1.082031 -2.675781 0.53125 -4.15625 0.53125 -5.90625 C 0.53125 -7.664062 1.082031 -9.148438 2.1875 -10.359375 C 3.300781 -11.578125 4.710938 -12.1875 6.421875 -12.1875 C 7.992188 -12.1875 9.285156 -11.695312 10.296875 -10.71875 L 10.296875 -11.84375 L 14.390625 -11.84375 L 14.390625 0 L 10.34375 0 L 10.34375 -1.34375 L 10.296875 -1.34375 C 9.285156 -0.21875 7.992188 0.34375 6.421875 0.34375 C 4.710938 0.34375 3.300781 -0.257812 2.1875 -1.46875 Z M 5.671875 -7.921875 C 5.140625 -7.398438 4.875 -6.726562 4.875 -5.90625 C 4.875 -5.09375 5.125 -4.425781 5.625 -3.90625 C 6.132812 -3.394531 6.804688 -3.140625 7.640625 -3.140625 C 8.441406 -3.140625 9.097656 -3.398438 9.609375 -3.921875 C 10.128906 -4.453125 10.390625 -5.113281 10.390625 -5.90625 C 10.390625 -6.726562 10.125 -7.398438 9.59375 -7.921875 C 9.0625 -8.441406 8.410156 -8.703125 7.640625 -8.703125 C 6.859375 -8.703125 6.203125 -8.441406 5.671875 -7.921875 Z M 5.671875 -7.921875 "/></g></g><g style="fill:#d9d9d9;fill-opacity:1;"><g transform="translate(48.45428, 23.109851)"><path style="stroke:none" d="M 7.6875 -8.84375 C 6.914062 -8.84375 6.253906 -8.554688 5.703125 -7.984375 C 5.148438 -7.421875 4.875 -6.738281 4.875 -5.9375 C 4.875 -5.125 5.148438 -4.429688 5.703125 -3.859375 C 6.253906 -3.285156 6.914062 -3 7.6875 -3 C 8.0625 -3 8.410156 -3.046875 8.734375 -3.140625 C 9.066406 -3.234375 9.3125 -3.328125 9.46875 -3.421875 L 9.671875 -3.5625 L 11.0625 -0.71875 C 10.957031 -0.632812 10.804688 -0.535156 10.609375 -0.421875 C 10.421875 -0.304688 9.984375 -0.148438 9.296875 0.046875 C 8.609375 0.242188 7.875 0.34375 7.09375 0.34375 C 5.351562 0.34375 3.820312 -0.265625 2.5 -1.484375 C 1.1875 -2.710938 0.53125 -4.179688 0.53125 -5.890625 C 0.53125 -7.609375 1.1875 -9.085938 2.5 -10.328125 C 3.820312 -11.566406 5.351562 -12.1875 7.09375 -12.1875 C 7.875 -12.1875 8.59375 -12.09375 9.25 -11.90625 C 9.914062 -11.726562 10.390625 -11.546875 10.671875 -11.359375 L 11.0625 -11.078125 L 9.671875 -8.296875 C 9.171875 -8.660156 8.507812 -8.84375 7.6875 -8.84375 Z M 7.6875 -8.84375 "/></g></g><g style="fill:#d9d9d9;fill-opacity:1;"><g transform="translate(58.638427, 23.109851)"><path style="stroke:none" d="M 2.078125 -11.84375 L 2.078125 -16.265625 L 6.171875 -16.265625 L 6.171875 -11.84375 L 8.65625 -11.84375 L 8.65625 -8.734375 L 6.171875 -8.734375 L 6.171875 -4.96875 C 6.171875 -3.875 6.476562 -3.328125 7.09375 -3.328125 C 7.25 -3.328125 7.410156 -3.359375 7.578125 -3.421875 C 7.742188 -3.484375 7.875 -3.546875 7.96875 -3.609375 L 8.109375 -3.6875 L 9.125 -0.390625 C 8.25 0.0976562 7.25 0.34375 6.125 0.34375 C 5.351562 0.34375 4.6875 0.207031 4.125 -0.0625 C 3.570312 -0.332031 3.15625 -0.691406 2.875 -1.140625 C 2.59375 -1.597656 2.390625 -2.078125 2.265625 -2.578125 C 2.140625 -3.078125 2.078125 -3.613281 2.078125 -4.1875 L 2.078125 -8.734375 L 0.375 -8.734375 L 0.375 -11.84375 Z M 2.078125 -11.84375 "/></g></g></g></svg>