<svg xmlns="http://www.w3.org/2000/svg" xmlns:xlink="http://www.w3.org/1999/xlink" width="200" zoomAndPan="magnify" viewBox="0 0 150 30.000001" height="40" preserveAspectRatio="xMidYMid meet" version="1.2"><defs/><g id="455279473f"><g style="fill:#e8e8e8;fill-opacity:1;"><g transform="translate(3.870965, 24.54168)"><path style="stroke:none" d="M 1.65625 -22.765625 L 9.796875 -22.765625 C 11.984375 -22.765625 13.765625 -22.179688 15.140625 -21.015625 C 16.523438 -19.847656 17.21875 -18.175781 17.21875 -16 C 17.21875 -14.332031 16.796875 -12.929688 15.953125 -11.796875 C 15.117188 -10.660156 13.988281 -9.863281 12.5625 -9.40625 L 20.390625 0 L 13.796875 0 L 6.84375 -9 L 6.84375 0 L 1.65625 0 Z M 6.84375 -12.671875 L 7.453125 -12.671875 C 7.929688 -12.671875 8.332031 -12.675781 8.65625 -12.6875 C 8.988281 -12.707031 9.367188 -12.769531 9.796875 -12.875 C 10.222656 -12.988281 10.5625 -13.144531 10.8125 -13.34375 C 11.070312 -13.550781 11.289062 -13.847656 11.46875 -14.234375 C 11.65625 -14.617188 11.75 -15.085938 11.75 -15.640625 C 11.75 -16.191406 11.65625 -16.660156 11.46875 -17.046875 C 11.289062 -17.429688 11.070312 -17.722656 10.8125 -17.921875 C 10.5625 -18.128906 10.222656 -18.289062 9.796875 -18.40625 C 9.367188 -18.519531 8.988281 -18.582031 8.65625 -18.59375 C 8.332031 -18.613281 7.929688 -18.625 7.453125 -18.625 L 6.84375 -18.625 Z M 6.84375 -12.671875 "/></g></g><g style="fill:#e8e8e8;fill-opacity:1;"><g transform="translate(22.2374, 24.54168)"><path style="stroke:none" d="M 15.984375 -6.40625 L 5.71875 -6.40625 C 5.71875 -5.40625 6.035156 -4.664062 6.671875 -4.1875 C 7.316406 -3.71875 8.019531 -3.484375 8.78125 -3.484375 C 9.570312 -3.484375 10.195312 -3.585938 10.65625 -3.796875 C 11.113281 -4.003906 11.632812 -4.421875 12.21875 -5.046875 L 15.75 -3.28125 C 14.28125 -0.820312 11.835938 0.40625 8.421875 0.40625 C 6.285156 0.40625 4.453125 -0.320312 2.921875 -1.78125 C 1.398438 -3.238281 0.640625 -5 0.640625 -7.0625 C 0.640625 -9.125 1.398438 -10.890625 2.921875 -12.359375 C 4.453125 -13.828125 6.285156 -14.5625 8.421875 -14.5625 C 10.660156 -14.5625 12.484375 -13.910156 13.890625 -12.609375 C 15.296875 -11.316406 16 -9.46875 16 -7.0625 C 16 -6.726562 15.992188 -6.507812 15.984375 -6.40625 Z M 5.84375 -9.109375 L 11.234375 -9.109375 C 11.117188 -9.835938 10.828125 -10.398438 10.359375 -10.796875 C 9.890625 -11.191406 9.285156 -11.390625 8.546875 -11.390625 C 7.742188 -11.390625 7.101562 -11.175781 6.625 -10.75 C 6.144531 -10.332031 5.882812 -9.785156 5.84375 -9.109375 Z M 5.84375 -9.109375 "/></g></g><g style="fill:#e8e8e8;fill-opacity:1;"><g transform="translate(37.487493, 24.54168)"><path style="stroke:none" d="M 2.625 -1.75 C 1.300781 -3.195312 0.640625 -4.96875 0.640625 -7.0625 C 0.640625 -9.15625 1.300781 -10.925781 2.625 -12.375 C 3.945312 -13.832031 5.628906 -14.5625 7.671875 -14.5625 C 9.546875 -14.5625 11.09375 -13.972656 12.3125 -12.796875 L 12.3125 -23.734375 L 17.1875 -23.734375 L 17.1875 0 L 12.359375 0 L 12.359375 -1.59375 L 12.3125 -1.59375 C 11.09375 -0.257812 9.546875 0.40625 7.671875 0.40625 C 5.628906 0.40625 3.945312 -0.3125 2.625 -1.75 Z M 6.765625 -9.46875 C 6.140625 -8.84375 5.828125 -8.039062 5.828125 -7.0625 C 5.828125 -6.082031 6.128906 -5.285156 6.734375 -4.671875 C 7.335938 -4.054688 8.140625 -3.75 9.140625 -3.75 C 10.085938 -3.75 10.867188 -4.0625 11.484375 -4.6875 C 12.109375 -5.3125 12.421875 -6.101562 12.421875 -7.0625 C 12.421875 -8.039062 12.101562 -8.84375 11.46875 -9.46875 C 10.832031 -10.09375 10.054688 -10.40625 9.140625 -10.40625 C 8.191406 -10.40625 7.398438 -10.09375 6.765625 -9.46875 Z M 6.765625 -9.46875 "/></g></g><g style="fill:#e8e8e8;fill-opacity:1;"><g transform="translate(54.943847, 24.54168)"><path style="stroke:none" d="M 6.265625 -14.15625 L 6.265625 -7.421875 C 6.265625 -6.023438 6.472656 -5.03125 6.890625 -4.4375 C 7.316406 -3.851562 8.035156 -3.5625 9.046875 -3.5625 C 10.054688 -3.5625 10.773438 -3.851562 11.203125 -4.4375 C 11.628906 -5.03125 11.84375 -6.023438 11.84375 -7.421875 L 11.84375 -14.15625 L 16.71875 -14.15625 L 16.71875 -6.234375 C 16.71875 -3.878906 16.101562 -2.179688 14.875 -1.140625 C 13.65625 -0.109375 11.710938 0.40625 9.046875 0.40625 C 6.378906 0.40625 4.429688 -0.109375 3.203125 -1.140625 C 1.984375 -2.179688 1.375 -3.878906 1.375 -6.234375 L 1.375 -14.15625 Z M 6.265625 -14.15625 "/></g></g><g style="fill:#e8e8e8;fill-opacity:1;"><g transform="translate(71.655583, 24.54168)"><path style="stroke:none" d="M 18.046875 0 L 12.140625 0 L 9.015625 -4 L 5.90625 0 L 0 0 L 6.046875 -7.390625 L 0.859375 -14.15625 L 6.5625 -14.15625 L 9.015625 -10.875 L 11.484375 -14.15625 L 17.1875 -14.15625 L 12 -7.390625 Z M 18.046875 0 "/></g></g></g></svg>