<svg xmlns="http://www.w3.org/2000/svg" xmlns:xlink="http://www.w3.org/1999/xlink" width="40" zoomAndPan="magnify" viewBox="0 0 30 30.000001" height="40" preserveAspectRatio="xMidYMid meet" version="1.2"><defs><clipPath id="285bc833a3"><path d="M 0.484375 0 L 29.515625 0 L 29.515625 29 L 0.484375 29 Z M 0.484375 0 "/></clipPath></defs><g id="9712df063e"><g clip-rule="nonzero" clip-path="url(#285bc833a3)"><path style=" stroke:none;fill-rule:nonzero;fill:#764abc;fill-opacity:1;" d="M 20.601562 19.929688 C 21.671875 19.820312 22.484375 18.894531 22.449219 17.785156 C 22.410156 16.679688 21.488281 15.792969 20.378906 15.792969 L 20.304688 15.792969 C 19.160156 15.828125 18.273438 16.789062 18.308594 17.933594 C 18.347656 18.488281 18.566406 18.96875 18.902344 19.300781 C 17.644531 21.777344 15.722656 23.585938 12.839844 25.101562 C 10.882812 26.136719 8.851562 26.503906 6.820312 26.246094 C 5.15625 26.027344 3.863281 25.285156 3.050781 24.066406 C 1.871094 22.257812 1.757812 20.296875 2.757812 18.339844 C 3.457031 16.9375 4.566406 15.902344 5.269531 15.386719 C 5.121094 14.90625 4.898438 14.09375 4.789062 13.5 C -0.570312 17.378906 -0.015625 22.625 1.609375 25.101562 C 2.828125 26.949219 5.304688 28.09375 8.039062 28.09375 C 8.777344 28.09375 9.515625 28.019531 10.253906 27.835938 C 14.984375 26.914062 18.566406 24.105469 20.601562 19.929688 Z M 27.101562 15.347656 C 24.292969 12.058594 20.15625 10.25 15.429688 10.25 L 14.835938 10.25 C 14.503906 9.585938 13.800781 9.140625 13.027344 9.140625 L 12.953125 9.140625 C 11.808594 9.179688 10.921875 10.136719 10.957031 11.285156 C 10.996094 12.390625 11.917969 13.277344 13.027344 13.277344 L 13.101562 13.277344 C 13.914062 13.242188 14.613281 12.726562 14.910156 12.023438 L 15.574219 12.023438 C 18.382812 12.023438 21.042969 12.835938 23.445312 14.425781 C 25.292969 15.644531 26.621094 17.230469 27.359375 19.152344 C 27.988281 20.707031 27.953125 22.21875 27.289062 23.511719 C 26.253906 25.472656 24.515625 26.542969 22.226562 26.542969 C 20.746094 26.542969 19.34375 26.097656 18.605469 25.765625 C 18.199219 26.136719 17.460938 26.726562 16.941406 27.097656 C 18.53125 27.835938 20.15625 28.242188 21.707031 28.242188 C 25.253906 28.242188 27.878906 26.285156 28.875 24.324219 C 29.945312 22.183594 29.875 18.488281 27.101562 15.347656 Z M 8.335938 20.558594 C 8.371094 21.664062 9.296875 22.550781 10.402344 22.550781 L 10.476562 22.550781 C 11.621094 22.515625 12.507812 21.554688 12.472656 20.410156 C 12.433594 19.300781 11.511719 18.414062 10.402344 18.414062 L 10.328125 18.414062 C 10.253906 18.414062 10.144531 18.414062 10.070312 18.453125 C 8.554688 15.9375 7.929688 13.207031 8.148438 10.25 C 8.296875 8.03125 9.035156 6.113281 10.328125 4.523438 C 11.402344 3.15625 13.46875 2.492188 14.875 2.453125 C 18.789062 2.378906 20.453125 7.257812 20.5625 9.214844 C 21.042969 9.324219 21.855469 9.585938 22.410156 9.769531 C 21.96875 3.785156 18.273438 0.679688 14.726562 0.679688 C 11.402344 0.679688 8.335938 3.082031 7.117188 6.628906 C 5.414062 11.359375 6.523438 15.902344 8.59375 19.484375 C 8.410156 19.746094 8.296875 20.152344 8.335938 20.558594 Z M 8.335938 20.558594 "/></g></g></svg>