<svg xmlns="http://www.w3.org/2000/svg" xmlns:xlink="http://www.w3.org/1999/xlink" width="200" zoomAndPan="magnify" viewBox="0 0 150 30.000001" height="40" preserveAspectRatio="xMidYMid meet" version="1.2"><defs><clipPath id="439e948290"><path d="M 2.417969 6 L 14 6 L 14 26 L 2.417969 26 Z M 2.417969 6 "/></clipPath><clipPath id="3ca4c4c6a5"><path d="M 135 10 L 147.578125 10 L 147.578125 26 L 135 26 Z M 135 10 "/></clipPath></defs><g id="263fcf8c0a"><g clip-rule="nonzero" clip-path="url(#439e948290)"><g style="fill:#e8e8e8;fill-opacity:1;"><g transform="translate(2.419352, 25.500929)"><path style="stroke:none" d="M 2.484375 -14.140625 L 2.484375 -19.421875 L 7.359375 -19.421875 L 7.359375 -14.140625 L 10.34375 -14.140625 L 10.34375 -10.421875 L 7.359375 -10.421875 L 7.359375 -5.921875 C 7.359375 -4.617188 7.726562 -3.96875 8.46875 -3.96875 C 8.65625 -3.96875 8.847656 -4.003906 9.046875 -4.078125 C 9.242188 -4.148438 9.398438 -4.222656 9.515625 -4.296875 L 9.6875 -4.40625 L 10.890625 -0.46875 C 9.847656 0.113281 8.65625 0.40625 7.3125 0.40625 C 6.382812 0.40625 5.585938 0.25 4.921875 -0.0625 C 4.265625 -0.382812 3.765625 -0.816406 3.421875 -1.359375 C 3.085938 -1.898438 2.847656 -2.46875 2.703125 -3.0625 C 2.554688 -3.664062 2.484375 -4.304688 2.484375 -4.984375 L 2.484375 -10.421875 L 0.4375 -10.421875 L 0.4375 -14.140625 Z M 2.484375 -14.140625 "/></g></g></g><g style="fill:#e8e8e8;fill-opacity:1;"><g transform="translate(11.928895, 25.500929)"><path style="stroke:none" d="M 2.625 -1.75 C 1.300781 -3.195312 0.640625 -4.96875 0.640625 -7.0625 C 0.640625 -9.15625 1.300781 -10.925781 2.625 -12.375 C 3.945312 -13.832031 5.628906 -14.5625 7.671875 -14.5625 C 9.546875 -14.5625 11.085938 -13.972656 12.296875 -12.796875 L 12.296875 -14.140625 L 17.1875 -14.140625 L 17.1875 0 L 12.359375 0 L 12.359375 -1.59375 L 12.296875 -1.59375 C 11.085938 -0.257812 9.546875 0.40625 7.671875 0.40625 C 5.628906 0.40625 3.945312 -0.3125 2.625 -1.75 Z M 6.765625 -9.453125 C 6.128906 -8.828125 5.8125 -8.023438 5.8125 -7.046875 C 5.8125 -6.078125 6.113281 -5.285156 6.71875 -4.671875 C 7.332031 -4.054688 8.132812 -3.75 9.125 -3.75 C 10.082031 -3.75 10.867188 -4.0625 11.484375 -4.6875 C 12.097656 -5.3125 12.40625 -6.101562 12.40625 -7.0625 C 12.40625 -8.03125 12.085938 -8.828125 11.453125 -9.453125 C 10.816406 -10.078125 10.039062 -10.390625 9.125 -10.390625 C 8.1875 -10.390625 7.398438 -10.078125 6.765625 -9.453125 Z M 6.765625 -9.453125 "/></g></g><g style="fill:#e8e8e8;fill-opacity:1;"><g transform="translate(29.377405, 25.500929)"><path style="stroke:none" d="M 2.125 -22.03125 C 2.695312 -22.601562 3.375 -22.890625 4.15625 -22.890625 C 4.945312 -22.890625 5.628906 -22.601562 6.203125 -22.03125 C 6.773438 -21.46875 7.0625 -20.789062 7.0625 -20 C 7.0625 -19.207031 6.773438 -18.523438 6.203125 -17.953125 C 5.628906 -17.378906 4.945312 -17.09375 4.15625 -17.09375 C 3.375 -17.09375 2.695312 -17.378906 2.125 -17.953125 C 1.550781 -18.523438 1.265625 -19.207031 1.265625 -20 C 1.265625 -20.789062 1.550781 -21.46875 2.125 -22.03125 Z M 1.65625 -14.140625 L 1.65625 0 L 6.53125 0 L 6.53125 -14.140625 Z M 1.65625 -14.140625 "/></g></g><g style="fill:#e8e8e8;fill-opacity:1;"><g transform="translate(36.323321, 25.500929)"><path style="stroke:none" d="M 1.65625 0 L 1.65625 -23.71875 L 6.53125 -23.71875 L 6.53125 0 Z M 1.65625 0 "/></g></g><g style="fill:#e8e8e8;fill-opacity:1;"><g transform="translate(43.131412, 25.500929)"><path style="stroke:none" d="M 10.34375 0 L 7.03125 0 L -0.546875 -14.140625 L 5.078125 -14.140625 L 8.515625 -6.515625 L 11.90625 -14.140625 L 15.28125 -14.140625 L 18.671875 -6.515625 L 22.125 -14.140625 L 27.75 -14.140625 L 20.15625 0 L 16.84375 0 L 13.59375 -7.3125 Z M 10.34375 0 "/></g></g><g style="fill:#e8e8e8;fill-opacity:1;"><g transform="translate(68.932375, 25.500929)"><path style="stroke:none" d="M 2.125 -22.03125 C 2.695312 -22.601562 3.375 -22.890625 4.15625 -22.890625 C 4.945312 -22.890625 5.628906 -22.601562 6.203125 -22.03125 C 6.773438 -21.46875 7.0625 -20.789062 7.0625 -20 C 7.0625 -19.207031 6.773438 -18.523438 6.203125 -17.953125 C 5.628906 -17.378906 4.945312 -17.09375 4.15625 -17.09375 C 3.375 -17.09375 2.695312 -17.378906 2.125 -17.953125 C 1.550781 -18.523438 1.265625 -19.207031 1.265625 -20 C 1.265625 -20.789062 1.550781 -21.46875 2.125 -22.03125 Z M 1.65625 -14.140625 L 1.65625 0 L 6.53125 0 L 6.53125 -14.140625 Z M 1.65625 -14.140625 "/></g></g><g style="fill:#e8e8e8;fill-opacity:1;"><g transform="translate(75.878292, 25.500929)"><path style="stroke:none" d="M 1.65625 0 L 1.65625 -14.140625 L 6.53125 -14.140625 L 6.53125 -12.65625 L 6.59375 -12.65625 C 7.863281 -13.925781 9.210938 -14.5625 10.640625 -14.5625 C 11.335938 -14.5625 12.03125 -14.46875 12.71875 -14.28125 C 13.414062 -14.101562 14.082031 -13.816406 14.71875 -13.421875 C 15.351562 -13.035156 15.863281 -12.488281 16.25 -11.78125 C 16.644531 -11.082031 16.84375 -10.265625 16.84375 -9.328125 L 16.84375 0 L 11.96875 0 L 11.96875 -8 C 11.96875 -8.726562 11.734375 -9.367188 11.265625 -9.921875 C 10.796875 -10.472656 10.1875 -10.75 9.4375 -10.75 C 8.695312 -10.75 8.023438 -10.460938 7.421875 -9.890625 C 6.828125 -9.328125 6.53125 -8.695312 6.53125 -8 L 6.53125 0 Z M 1.65625 0 "/></g></g><g style="fill:#e8e8e8;fill-opacity:1;"><g transform="translate(92.720344, 25.500929)"><path style="stroke:none" d="M 2.625 -1.75 C 1.300781 -3.195312 0.640625 -4.96875 0.640625 -7.0625 C 0.640625 -9.15625 1.300781 -10.925781 2.625 -12.375 C 3.945312 -13.832031 5.628906 -14.5625 7.671875 -14.5625 C 9.546875 -14.5625 11.085938 -13.972656 12.296875 -12.796875 L 12.296875 -23.71875 L 17.1875 -23.71875 L 17.1875 0 L 12.359375 0 L 12.359375 -1.59375 L 12.296875 -1.59375 C 11.085938 -0.257812 9.546875 0.40625 7.671875 0.40625 C 5.628906 0.40625 3.945312 -0.3125 2.625 -1.75 Z M 6.765625 -9.453125 C 6.128906 -8.828125 5.8125 -8.023438 5.8125 -7.046875 C 5.8125 -6.078125 6.113281 -5.285156 6.71875 -4.671875 C 7.332031 -4.054688 8.132812 -3.75 9.125 -3.75 C 10.082031 -3.75 10.867188 -4.0625 11.484375 -4.6875 C 12.097656 -5.3125 12.40625 -6.101562 12.40625 -7.0625 C 12.40625 -8.03125 12.085938 -8.828125 11.453125 -9.453125 C 10.816406 -10.078125 10.039062 -10.390625 9.125 -10.390625 C 8.1875 -10.390625 7.398438 -10.078125 6.765625 -9.453125 Z M 6.765625 -9.453125 "/></g></g><g style="fill:#e8e8e8;fill-opacity:1;"><g transform="translate(110.168853, 25.500929)"><path style="stroke:none" d="M 9.1875 -10.5625 C 8.257812 -10.5625 7.460938 -10.21875 6.796875 -9.53125 C 6.140625 -8.851562 5.8125 -8.039062 5.8125 -7.09375 C 5.8125 -6.113281 6.140625 -5.28125 6.796875 -4.59375 C 7.460938 -3.914062 8.257812 -3.578125 9.1875 -3.578125 C 9.625 -3.578125 10.039062 -3.632812 10.4375 -3.75 C 10.832031 -3.863281 11.125 -3.972656 11.3125 -4.078125 L 11.5625 -4.25 L 13.203125 -0.859375 C 13.078125 -0.765625 12.898438 -0.644531 12.671875 -0.5 C 12.441406 -0.363281 11.914062 -0.179688 11.09375 0.046875 C 10.28125 0.285156 9.40625 0.40625 8.46875 0.40625 C 6.382812 0.40625 4.554688 -0.320312 2.984375 -1.78125 C 1.421875 -3.238281 0.640625 -4.988281 0.640625 -7.03125 C 0.640625 -9.09375 1.421875 -10.863281 2.984375 -12.34375 C 4.554688 -13.820312 6.382812 -14.5625 8.46875 -14.5625 C 9.40625 -14.5625 10.269531 -14.453125 11.0625 -14.234375 C 11.851562 -14.015625 12.410156 -13.789062 12.734375 -13.5625 L 13.203125 -13.234375 L 11.5625 -9.90625 C 10.945312 -10.34375 10.15625 -10.5625 9.1875 -10.5625 Z M 9.1875 -10.5625 "/></g></g><g style="fill:#e8e8e8;fill-opacity:1;"><g transform="translate(122.324718, 25.500929)"><path style="stroke:none" d="M 7.796875 -14.5625 C 8.609375 -14.5625 9.410156 -14.46875 10.203125 -14.28125 C 10.992188 -14.101562 11.582031 -13.921875 11.96875 -13.734375 L 12.546875 -13.453125 L 10.953125 -10.265625 C 9.847656 -10.847656 8.796875 -11.140625 7.796875 -11.140625 C 7.253906 -11.140625 6.863281 -11.078125 6.625 -10.953125 C 6.394531 -10.835938 6.28125 -10.613281 6.28125 -10.28125 C 6.28125 -10.207031 6.289062 -10.132812 6.3125 -10.0625 C 6.332031 -9.988281 6.367188 -9.921875 6.421875 -9.859375 C 6.484375 -9.796875 6.535156 -9.738281 6.578125 -9.6875 C 6.617188 -9.644531 6.695312 -9.59375 6.8125 -9.53125 C 6.925781 -9.476562 7.015625 -9.4375 7.078125 -9.40625 C 7.140625 -9.382812 7.242188 -9.347656 7.390625 -9.296875 C 7.535156 -9.242188 7.644531 -9.203125 7.71875 -9.171875 C 7.789062 -9.140625 7.914062 -9.097656 8.09375 -9.046875 C 8.269531 -8.992188 8.40625 -8.957031 8.5 -8.9375 C 9.0625 -8.769531 9.554688 -8.582031 9.984375 -8.375 C 10.410156 -8.175781 10.859375 -7.898438 11.328125 -7.546875 C 11.796875 -7.203125 12.15625 -6.765625 12.40625 -6.234375 C 12.664062 -5.703125 12.796875 -5.09375 12.796875 -4.40625 C 12.796875 -1.195312 10.5625 0.40625 6.09375 0.40625 C 5.082031 0.40625 4.117188 0.25 3.203125 -0.0625 C 2.296875 -0.375 1.640625 -0.6875 1.234375 -1 L 0.640625 -1.484375 L 2.625 -4.828125 C 2.769531 -4.703125 2.960938 -4.550781 3.203125 -4.375 C 3.441406 -4.195312 3.875 -3.957031 4.5 -3.65625 C 5.125 -3.351562 5.664062 -3.203125 6.125 -3.203125 C 7.132812 -3.203125 7.640625 -3.539062 7.640625 -4.21875 C 7.640625 -4.53125 7.507812 -4.773438 7.25 -4.953125 C 6.988281 -5.128906 6.550781 -5.328125 5.9375 -5.546875 C 5.320312 -5.765625 4.84375 -5.96875 4.5 -6.15625 C 3.613281 -6.613281 2.910156 -7.128906 2.390625 -7.703125 C 1.878906 -8.285156 1.625 -9.054688 1.625 -10.015625 C 1.625 -11.441406 2.179688 -12.554688 3.296875 -13.359375 C 4.410156 -14.160156 5.910156 -14.5625 7.796875 -14.5625 Z M 7.796875 -14.5625 "/></g></g><g clip-rule="nonzero" clip-path="url(#3ca4c4c6a5)"><g style="fill:#e8e8e8;fill-opacity:1;"><g transform="translate(134.508148, 25.500929)"><path style="stroke:none" d="M 7.796875 -14.5625 C 8.609375 -14.5625 9.410156 -14.46875 10.203125 -14.28125 C 10.992188 -14.101562 11.582031 -13.921875 11.96875 -13.734375 L 12.546875 -13.453125 L 10.953125 -10.265625 C 9.847656 -10.847656 8.796875 -11.140625 7.796875 -11.140625 C 7.253906 -11.140625 6.863281 -11.078125 6.625 -10.953125 C 6.394531 -10.835938 6.28125 -10.613281 6.28125 -10.28125 C 6.28125 -10.207031 6.289062 -10.132812 6.3125 -10.0625 C 6.332031 -9.988281 6.367188 -9.921875 6.421875 -9.859375 C 6.484375 -9.796875 6.535156 -9.738281 6.578125 -9.6875 C 6.617188 -9.644531 6.695312 -9.59375 6.8125 -9.53125 C 6.925781 -9.476562 7.015625 -9.4375 7.078125 -9.40625 C 7.140625 -9.382812 7.242188 -9.347656 7.390625 -9.296875 C 7.535156 -9.242188 7.644531 -9.203125 7.71875 -9.171875 C 7.789062 -9.140625 7.914062 -9.097656 8.09375 -9.046875 C 8.269531 -8.992188 8.40625 -8.957031 8.5 -8.9375 C 9.0625 -8.769531 9.554688 -8.582031 9.984375 -8.375 C 10.410156 -8.175781 10.859375 -7.898438 11.328125 -7.546875 C 11.796875 -7.203125 12.15625 -6.765625 12.40625 -6.234375 C 12.664062 -5.703125 12.796875 -5.09375 12.796875 -4.40625 C 12.796875 -1.195312 10.5625 0.40625 6.09375 0.40625 C 5.082031 0.40625 4.117188 0.25 3.203125 -0.0625 C 2.296875 -0.375 1.640625 -0.6875 1.234375 -1 L 0.640625 -1.484375 L 2.625 -4.828125 C 2.769531 -4.703125 2.960938 -4.550781 3.203125 -4.375 C 3.441406 -4.195312 3.875 -3.957031 4.5 -3.65625 C 5.125 -3.351562 5.664062 -3.203125 6.125 -3.203125 C 7.132812 -3.203125 7.640625 -3.539062 7.640625 -4.21875 C 7.640625 -4.53125 7.507812 -4.773438 7.25 -4.953125 C 6.988281 -5.128906 6.550781 -5.328125 5.9375 -5.546875 C 5.320312 -5.765625 4.84375 -5.96875 4.5 -6.15625 C 3.613281 -6.613281 2.910156 -7.128906 2.390625 -7.703125 C 1.878906 -8.285156 1.625 -9.054688 1.625 -10.015625 C 1.625 -11.441406 2.179688 -12.554688 3.296875 -13.359375 C 4.410156 -14.160156 5.910156 -14.5625 7.796875 -14.5625 Z M 7.796875 -14.5625 "/></g></g></g></g></svg>