<svg xmlns="http://www.w3.org/2000/svg" xmlns:xlink="http://www.w3.org/1999/xlink" width="200" zoomAndPan="magnify" viewBox="0 0 150 30.000001" height="40" preserveAspectRatio="xMidYMid meet" version="1.2"><defs/><g id="69626902d8"><g style="fill:#e8e8e8;fill-opacity:1;"><g transform="translate(3.870965, 24.54168)"><path style="stroke:none" d="M 8.78125 0 L -0.765625 -22.765625 L 5.078125 -22.765625 L 10.8125 -7.8125 L 16.5625 -22.765625 L 22.40625 -22.765625 L 12.859375 0 Z M 8.78125 0 "/></g></g><g style="fill:#e8e8e8;fill-opacity:1;"><g transform="translate(24.112718, 24.54168)"><path style="stroke:none" d="M 2.125 -22.046875 C 2.695312 -22.617188 3.378906 -22.90625 4.171875 -22.90625 C 4.960938 -22.90625 5.640625 -22.617188 6.203125 -22.046875 C 6.773438 -21.472656 7.0625 -20.789062 7.0625 -20 C 7.0625 -19.207031 6.773438 -18.523438 6.203125 -17.953125 C 5.640625 -17.390625 4.960938 -17.109375 4.171875 -17.109375 C 3.378906 -17.109375 2.695312 -17.390625 2.125 -17.953125 C 1.550781 -18.523438 1.265625 -19.207031 1.265625 -20 C 1.265625 -20.789062 1.550781 -21.472656 2.125 -22.046875 Z M 1.65625 -14.15625 L 1.65625 0 L 6.546875 0 L 6.546875 -14.15625 Z M 1.65625 -14.15625 "/></g></g><g style="fill:#e8e8e8;fill-opacity:1;"><g transform="translate(31.061757, 24.54168)"><path style="stroke:none" d="M 2.484375 -14.15625 L 2.484375 -19.421875 L 7.375 -19.421875 L 7.375 -14.15625 L 10.34375 -14.15625 L 10.34375 -10.4375 L 7.375 -10.4375 L 7.375 -5.9375 C 7.375 -4.625 7.738281 -3.96875 8.46875 -3.96875 C 8.65625 -3.96875 8.847656 -4.003906 9.046875 -4.078125 C 9.253906 -4.148438 9.410156 -4.222656 9.515625 -4.296875 L 9.6875 -4.421875 L 10.90625 -0.46875 C 9.851562 0.113281 8.65625 0.40625 7.3125 0.40625 C 6.394531 0.40625 5.601562 0.25 4.9375 -0.0625 C 4.28125 -0.382812 3.78125 -0.816406 3.4375 -1.359375 C 3.09375 -1.910156 2.847656 -2.484375 2.703125 -3.078125 C 2.554688 -3.671875 2.484375 -4.3125 2.484375 -5 L 2.484375 -10.4375 L 0.4375 -10.4375 L 0.4375 -14.15625 Z M 2.484375 -14.15625 "/></g></g><g style="fill:#e8e8e8;fill-opacity:1;"><g transform="translate(40.575575, 24.54168)"><path style="stroke:none" d="M 15.984375 -6.40625 L 5.71875 -6.40625 C 5.71875 -5.40625 6.035156 -4.664062 6.671875 -4.1875 C 7.316406 -3.71875 8.019531 -3.484375 8.78125 -3.484375 C 9.570312 -3.484375 10.195312 -3.585938 10.65625 -3.796875 C 11.113281 -4.003906 11.632812 -4.421875 12.21875 -5.046875 L 15.75 -3.28125 C 14.28125 -0.820312 11.835938 0.40625 8.421875 0.40625 C 6.285156 0.40625 4.453125 -0.320312 2.921875 -1.78125 C 1.398438 -3.238281 0.640625 -5 0.640625 -7.0625 C 0.640625 -9.125 1.398438 -10.890625 2.921875 -12.359375 C 4.453125 -13.828125 6.285156 -14.5625 8.421875 -14.5625 C 10.660156 -14.5625 12.484375 -13.910156 13.890625 -12.609375 C 15.296875 -11.316406 16 -9.46875 16 -7.0625 C 16 -6.726562 15.992188 -6.507812 15.984375 -6.40625 Z M 5.84375 -9.109375 L 11.234375 -9.109375 C 11.117188 -9.835938 10.828125 -10.398438 10.359375 -10.796875 C 9.890625 -11.191406 9.285156 -11.390625 8.546875 -11.390625 C 7.742188 -11.390625 7.101562 -11.175781 6.625 -10.75 C 6.144531 -10.332031 5.882812 -9.785156 5.84375 -9.109375 Z M 5.84375 -9.109375 "/></g></g></g></svg>