<svg xmlns="http://www.w3.org/2000/svg" xmlns:xlink="http://www.w3.org/1999/xlink" width="200" zoomAndPan="magnify" viewBox="0 0 150 30.000001" height="40" preserveAspectRatio="xMidYMid meet" version="1.2"><defs/><g id="fe4233d3f7"><g style="fill:#e8e8e8;fill-opacity:1;"><g transform="translate(3.870965, 24.54168)"><path style="stroke:none" d="M 20.78125 -22.765625 L 9.5 -4.546875 L 20.03125 -4.546875 L 20.03125 0 L 0.4375 0 L 11.703125 -18.21875 L 2.046875 -18.21875 L 2.046875 -22.765625 Z M 20.78125 -22.765625 "/></g></g><g style="fill:#e8e8e8;fill-opacity:1;"><g transform="translate(23.699043, 24.54168)"><path style="stroke:none" d="M 6.265625 -14.15625 L 6.265625 -7.421875 C 6.265625 -6.023438 6.472656 -5.03125 6.890625 -4.4375 C 7.316406 -3.851562 8.035156 -3.5625 9.046875 -3.5625 C 10.054688 -3.5625 10.773438 -3.851562 11.203125 -4.4375 C 11.628906 -5.03125 11.84375 -6.023438 11.84375 -7.421875 L 11.84375 -14.15625 L 16.71875 -14.15625 L 16.71875 -6.234375 C 16.71875 -3.878906 16.101562 -2.179688 14.875 -1.140625 C 13.65625 -0.109375 11.710938 0.40625 9.046875 0.40625 C 6.378906 0.40625 4.429688 -0.109375 3.203125 -1.140625 C 1.984375 -2.179688 1.375 -3.878906 1.375 -6.234375 L 1.375 -14.15625 Z M 6.265625 -14.15625 "/></g></g><g style="fill:#e8e8e8;fill-opacity:1;"><g transform="translate(40.41078, 24.54168)"><path style="stroke:none" d="M 7.8125 -14.5625 C 8.613281 -14.5625 9.410156 -14.46875 10.203125 -14.28125 C 10.992188 -14.101562 11.582031 -13.921875 11.96875 -13.734375 L 12.5625 -13.46875 L 10.953125 -10.265625 C 9.847656 -10.847656 8.800781 -11.140625 7.8125 -11.140625 C 7.257812 -11.140625 6.867188 -11.082031 6.640625 -10.96875 C 6.410156 -10.851562 6.296875 -10.628906 6.296875 -10.296875 C 6.296875 -10.222656 6.300781 -10.148438 6.3125 -10.078125 C 6.332031 -10.003906 6.367188 -9.929688 6.421875 -9.859375 C 6.484375 -9.796875 6.535156 -9.738281 6.578125 -9.6875 C 6.628906 -9.644531 6.707031 -9.597656 6.8125 -9.546875 C 6.925781 -9.492188 7.015625 -9.453125 7.078125 -9.421875 C 7.140625 -9.390625 7.242188 -9.347656 7.390625 -9.296875 C 7.535156 -9.242188 7.644531 -9.203125 7.71875 -9.171875 C 7.800781 -9.148438 7.925781 -9.109375 8.09375 -9.046875 C 8.269531 -8.992188 8.40625 -8.957031 8.5 -8.9375 C 9.070312 -8.769531 9.566406 -8.582031 9.984375 -8.375 C 10.410156 -8.175781 10.859375 -7.898438 11.328125 -7.546875 C 11.796875 -7.203125 12.15625 -6.765625 12.40625 -6.234375 C 12.664062 -5.703125 12.796875 -5.097656 12.796875 -4.421875 C 12.796875 -1.203125 10.5625 0.40625 6.09375 0.40625 C 5.082031 0.40625 4.117188 0.25 3.203125 -0.0625 C 2.296875 -0.375 1.640625 -0.6875 1.234375 -1 L 0.640625 -1.484375 L 2.625 -4.828125 C 2.769531 -4.703125 2.960938 -4.550781 3.203125 -4.375 C 3.441406 -4.195312 3.875 -3.957031 4.5 -3.65625 C 5.125 -3.351562 5.664062 -3.203125 6.125 -3.203125 C 7.132812 -3.203125 7.640625 -3.539062 7.640625 -4.21875 C 7.640625 -4.53125 7.507812 -4.773438 7.25 -4.953125 C 7 -5.128906 6.5625 -5.328125 5.9375 -5.546875 C 5.320312 -5.765625 4.84375 -5.96875 4.5 -6.15625 C 3.613281 -6.613281 2.910156 -7.128906 2.390625 -7.703125 C 1.878906 -8.285156 1.625 -9.054688 1.625 -10.015625 C 1.625 -11.453125 2.179688 -12.566406 3.296875 -13.359375 C 4.410156 -14.160156 5.914062 -14.5625 7.8125 -14.5625 Z M 7.8125 -14.5625 "/></g></g><g style="fill:#e8e8e8;fill-opacity:1;"><g transform="translate(52.599687, 24.54168)"><path style="stroke:none" d="M 2.484375 -14.15625 L 2.484375 -19.421875 L 7.375 -19.421875 L 7.375 -14.15625 L 10.34375 -14.15625 L 10.34375 -10.4375 L 7.375 -10.4375 L 7.375 -5.9375 C 7.375 -4.625 7.738281 -3.96875 8.46875 -3.96875 C 8.65625 -3.96875 8.847656 -4.003906 9.046875 -4.078125 C 9.253906 -4.148438 9.410156 -4.222656 9.515625 -4.296875 L 9.6875 -4.421875 L 10.90625 -0.46875 C 9.851562 0.113281 8.65625 0.40625 7.3125 0.40625 C 6.394531 0.40625 5.601562 0.25 4.9375 -0.0625 C 4.28125 -0.382812 3.78125 -0.816406 3.4375 -1.359375 C 3.09375 -1.910156 2.847656 -2.484375 2.703125 -3.078125 C 2.554688 -3.671875 2.484375 -4.3125 2.484375 -5 L 2.484375 -10.4375 L 0.4375 -10.4375 L 0.4375 -14.15625 Z M 2.484375 -14.15625 "/></g></g><g style="fill:#e8e8e8;fill-opacity:1;"><g transform="translate(62.113505, 24.54168)"><path style="stroke:none" d="M 2.625 -1.75 C 1.300781 -3.195312 0.640625 -4.96875 0.640625 -7.0625 C 0.640625 -9.15625 1.300781 -10.925781 2.625 -12.375 C 3.945312 -13.832031 5.628906 -14.5625 7.671875 -14.5625 C 9.546875 -14.5625 11.09375 -13.972656 12.3125 -12.796875 L 12.3125 -14.15625 L 17.1875 -14.15625 L 17.1875 0 L 12.359375 0 L 12.359375 -1.59375 L 12.3125 -1.59375 C 11.09375 -0.257812 9.546875 0.40625 7.671875 0.40625 C 5.628906 0.40625 3.945312 -0.3125 2.625 -1.75 Z M 6.765625 -9.46875 C 6.140625 -8.84375 5.828125 -8.039062 5.828125 -7.0625 C 5.828125 -6.082031 6.128906 -5.285156 6.734375 -4.671875 C 7.335938 -4.054688 8.140625 -3.75 9.140625 -3.75 C 10.085938 -3.75 10.867188 -4.0625 11.484375 -4.6875 C 12.109375 -5.3125 12.421875 -6.101562 12.421875 -7.0625 C 12.421875 -8.039062 12.101562 -8.84375 11.46875 -9.46875 C 10.832031 -10.09375 10.054688 -10.40625 9.140625 -10.40625 C 8.191406 -10.40625 7.398438 -10.09375 6.765625 -9.46875 Z M 6.765625 -9.46875 "/></g></g><g style="fill:#e8e8e8;fill-opacity:1;"><g transform="translate(79.569859, 24.54168)"><path style="stroke:none" d="M 1.65625 0 L 1.65625 -14.15625 L 6.546875 -14.15625 L 6.546875 -12.671875 L 6.59375 -12.671875 C 7.863281 -13.929688 9.21875 -14.5625 10.65625 -14.5625 C 11.351562 -14.5625 12.046875 -14.46875 12.734375 -14.28125 C 13.421875 -14.101562 14.082031 -13.820312 14.71875 -13.4375 C 15.351562 -13.050781 15.867188 -12.503906 16.265625 -11.796875 C 16.660156 -11.085938 16.859375 -10.265625 16.859375 -9.328125 L 16.859375 0 L 11.96875 0 L 11.96875 -8 C 11.96875 -8.738281 11.734375 -9.382812 11.265625 -9.9375 C 10.796875 -10.488281 10.1875 -10.765625 9.4375 -10.765625 C 8.695312 -10.765625 8.03125 -10.476562 7.4375 -9.90625 C 6.84375 -9.332031 6.546875 -8.695312 6.546875 -8 L 6.546875 0 Z M 1.65625 0 "/></g></g><g style="fill:#e8e8e8;fill-opacity:1;"><g transform="translate(96.419483, 24.54168)"><path style="stroke:none" d="M 2.625 -1.75 C 1.300781 -3.195312 0.640625 -4.96875 0.640625 -7.0625 C 0.640625 -9.15625 1.300781 -10.925781 2.625 -12.375 C 3.945312 -13.832031 5.628906 -14.5625 7.671875 -14.5625 C 9.546875 -14.5625 11.09375 -13.972656 12.3125 -12.796875 L 12.3125 -23.734375 L 17.1875 -23.734375 L 17.1875 0 L 12.359375 0 L 12.359375 -1.59375 L 12.3125 -1.59375 C 11.09375 -0.257812 9.546875 0.40625 7.671875 0.40625 C 5.628906 0.40625 3.945312 -0.3125 2.625 -1.75 Z M 6.765625 -9.46875 C 6.140625 -8.84375 5.828125 -8.039062 5.828125 -7.0625 C 5.828125 -6.082031 6.128906 -5.285156 6.734375 -4.671875 C 7.335938 -4.054688 8.140625 -3.75 9.140625 -3.75 C 10.085938 -3.75 10.867188 -4.0625 11.484375 -4.6875 C 12.109375 -5.3125 12.421875 -6.101562 12.421875 -7.0625 C 12.421875 -8.039062 12.101562 -8.84375 11.46875 -9.46875 C 10.832031 -10.09375 10.054688 -10.40625 9.140625 -10.40625 C 8.191406 -10.40625 7.398438 -10.09375 6.765625 -9.46875 Z M 6.765625 -9.46875 "/></g></g></g></svg>